<svg width="881" height="538" viewBox="0 0 881 538" fill="none" xmlns="http://www.w3.org/2000/svg">
<g clip-path="url(#clip0_12_72)">
<g filter="url(#filter0_d_12_72)">
<path d="M857.5 269C857.5 405.414 681.1 516 463.5 516C376.1 516 295.346 498.16 230 467.971L15 503L138.5 409C69.5 352.5 69.5 296.627 69.5 269C69.5 132.586 245.9 22 463.5 22C681.1 22 857.5 132.586 857.5 269Z" fill="white"/>
</g>
<path d="M297.9 268.2C305.9 270.733 312.167 275 316.7 281C321.233 286.867 323.5 294.133 323.5 302.8C323.5 315.067 318.7 324.533 309.1 331.2C299.633 337.733 285.767 341 267.5 341H195.1V201H263.5C280.567 201 293.633 204.267 302.7 210.8C311.9 217.333 316.5 226.2 316.5 237.4C316.5 244.2 314.833 250.267 311.5 255.6C308.3 260.933 303.767 265.133 297.9 268.2ZM227.3 225.4V258.4H259.5C267.5 258.4 273.567 257 277.7 254.2C281.833 251.4 283.9 247.267 283.9 241.8C283.9 236.333 281.833 232.267 277.7 229.6C273.567 226.8 267.5 225.4 259.5 225.4H227.3ZM265.1 316.6C273.633 316.6 280.033 315.2 284.3 312.4C288.7 309.6 290.9 305.267 290.9 299.4C290.9 287.8 282.3 282 265.1 282H227.3V316.6H265.1ZM415.83 343.4C401.296 343.4 388.163 340.267 376.43 334C364.83 327.733 355.696 319.133 349.03 308.2C342.496 297.133 339.23 284.733 339.23 271C339.23 257.267 342.496 244.933 349.03 234C355.696 222.933 364.83 214.267 376.43 208C388.163 201.733 401.296 198.6 415.83 198.6C430.363 198.6 443.43 201.733 455.03 208C466.63 214.267 475.763 222.933 482.43 234C489.096 244.933 492.43 257.267 492.43 271C492.43 284.733 489.096 297.133 482.43 308.2C475.763 319.133 466.63 327.733 455.03 334C443.43 340.267 430.363 343.4 415.83 343.4ZM415.83 315.8C424.096 315.8 431.563 313.933 438.23 310.2C444.896 306.333 450.096 301 453.83 294.2C457.696 287.4 459.63 279.667 459.63 271C459.63 262.333 457.696 254.6 453.83 247.8C450.096 241 444.896 235.733 438.23 232C431.563 228.133 424.096 226.2 415.83 226.2C407.563 226.2 400.096 228.133 393.43 232C386.763 235.733 381.496 241 377.63 247.8C373.896 254.6 372.03 262.333 372.03 271C372.03 279.667 373.896 287.4 377.63 294.2C381.496 301 386.763 306.333 393.43 310.2C400.096 313.933 407.563 315.8 415.83 315.8ZM584.58 343.4C570.046 343.4 556.913 340.267 545.18 334C533.58 327.733 524.446 319.133 517.78 308.2C511.246 297.133 507.98 284.733 507.98 271C507.98 257.267 511.246 244.933 517.78 234C524.446 222.933 533.58 214.267 545.18 208C556.913 201.733 570.046 198.6 584.58 198.6C599.113 198.6 612.18 201.733 623.78 208C635.38 214.267 644.513 222.933 651.18 234C657.846 244.933 661.18 257.267 661.18 271C661.18 284.733 657.846 297.133 651.18 308.2C644.513 319.133 635.38 327.733 623.78 334C612.18 340.267 599.113 343.4 584.58 343.4ZM584.58 315.8C592.846 315.8 600.313 313.933 606.98 310.2C613.646 306.333 618.846 301 622.58 294.2C626.446 287.4 628.38 279.667 628.38 271C628.38 262.333 626.446 254.6 622.58 247.8C618.846 241 613.646 235.733 606.98 232C600.313 228.133 592.846 226.2 584.58 226.2C576.313 226.2 568.846 228.133 562.18 232C555.513 235.733 550.246 241 546.38 247.8C542.646 254.6 540.78 262.333 540.78 271C540.78 279.667 542.646 287.4 546.38 294.2C550.246 301 555.513 306.333 562.18 310.2C568.846 313.933 576.313 315.8 584.58 315.8ZM679.33 201H716.53L710.33 292.4H685.53L679.33 201ZM697.93 342.6C692.463 342.6 687.863 340.867 684.13 337.4C680.53 333.8 678.73 329.467 678.73 324.4C678.73 319.333 680.53 315.133 684.13 311.8C687.73 308.333 692.33 306.6 697.93 306.6C703.53 306.6 708.13 308.333 711.73 311.8C715.33 315.133 717.13 319.333 717.13 324.4C717.13 329.467 715.263 333.8 711.53 337.4C707.93 340.867 703.396 342.6 697.93 342.6Z" fill="url(#paint0_linear_12_72)"/>
</g>
<defs>
<filter id="filter0_d_12_72" x="-5" y="2" width="882.5" height="534" filterUnits="userSpaceOnUse" color-interpolation-filters="sRGB">
<feFlood flood-opacity="0" result="BackgroundImageFix"/>
<feColorMatrix in="SourceAlpha" type="matrix" values="0 0 0 0 0 0 0 0 0 0 0 0 0 0 0 0 0 0 127 0" result="hardAlpha"/>
<feOffset/>
<feGaussianBlur stdDeviation="10"/>
<feComposite in2="hardAlpha" operator="out"/>
<feColorMatrix type="matrix" values="0 0 0 0 0 0 0 0 0 0 0 0 0 0 0 0 0 0 0.25 0"/>
<feBlend mode="normal" in2="BackgroundImageFix" result="effect1_dropShadow_12_72"/>
<feBlend mode="normal" in="SourceGraphic" in2="effect1_dropShadow_12_72" result="shape"/>
</filter>
<linearGradient id="paint0_linear_12_72" x1="193" y1="200" x2="727.5" y2="341" gradientUnits="userSpaceOnUse">
<stop stop-color="#14FFFF"/>
<stop offset="1" stop-color="#FF00E5"/>
</linearGradient>
<clipPath id="clip0_12_72">
<rect width="881" height="538" fill="white"/>
</clipPath>
</defs>
</svg>
