<?xml version="1.0" encoding="UTF-8" standalone="no" ?>
<!DOCTYPE svg PUBLIC "-//W3C//DTD SVG 1.1//EN" "http://www.w3.org/Graphics/SVG/1.1/DTD/svg11.dtd">
<svg xmlns="http://www.w3.org/2000/svg" xmlns:xlink="http://www.w3.org/1999/xlink" version="1.1" width="512" height="512" viewBox="0 0 512 512" xml:space="preserve">
<desc>Created with Fabric.js 3.6.3</desc>
<defs>
</defs>
<g transform="matrix(5.12 0 0 5.12 256 256)"  >
<linearGradient id="SVGID_165" gradientUnits="userSpaceOnUse" gradientTransform="matrix(1 0 0 1 -50 -50)"  x1="15" y1="14.000000000000002" x2="85" y2="86">
<stop offset="0%" style="stop-color:rgba(0, 255, 225, 1);"/>
<stop offset="100%" style="stop-color:rgba(254, 0, 255, 1);"/>
</linearGradient>
<polygon style="stroke: rgb(255,255,255); stroke-width: 0; stroke-dasharray: none; stroke-linecap: butt; stroke-dashoffset: 0; stroke-linejoin: round; stroke-miterlimit: 4; fill: url(#SVGID_165); fill-rule: nonzero; opacity: 1;"  points="-50,-50 -50,50 50,50 50,-50 " />
</g>
<g transform="matrix(5 0 0 5 256.5 289)"  >
<circle style="stroke: rgb(255,255,255); stroke-width: 0; stroke-dasharray: none; stroke-linecap: butt; stroke-dashoffset: 0; stroke-linejoin: miter; stroke-miterlimit: 4; fill: rgb(255,255,255); fill-rule: nonzero; opacity: 1;"  cx="0" cy="0" r="40" />
</g>
<g transform="matrix(1.47 0 0 2.03 142.5 124.5)"  >
<polygon style="stroke: rgb(0,0,0); stroke-width: 0; stroke-dasharray: none; stroke-linecap: butt; stroke-dashoffset: 0; stroke-linejoin: miter; stroke-miterlimit: 4; fill: rgb(255,255,255); fill-rule: nonzero; opacity: 1;"  points="-50,-50 50,50 -50,50 " />
</g>
<g transform="matrix(-1.47 0 0 2.03 373.5 134.5)"  >
<polygon style="stroke: rgb(0,0,0); stroke-width: 0; stroke-dasharray: none; stroke-linecap: butt; stroke-dashoffset: 0; stroke-linejoin: miter; stroke-miterlimit: 4; fill: rgb(255,255,255); fill-rule: nonzero; opacity: 1;"  points="-50,-50 50,50 -50,50 " />
</g>
<g transform="matrix(1 0 0 1 404 270.5)"  >
<line style="stroke: rgb(246,153,255); stroke-width: 15; stroke-dasharray: none; stroke-linecap: butt; stroke-dashoffset: 0; stroke-linejoin: round; stroke-miterlimit: 4; fill: rgb(0,0,0); fill-rule: nonzero; opacity: 1;"  x1="-89.5" y1="21" x2="89.5" y2="-21" />
</g>
<g transform="matrix(1 0 0 1 400.5 329)"  >
<line style="stroke: rgb(244,143,255); stroke-width: 15; stroke-dasharray: none; stroke-linecap: butt; stroke-dashoffset: 0; stroke-linejoin: miter; stroke-miterlimit: 4; fill: rgb(0,0,0); fill-rule: nonzero; opacity: 1;"  x1="-82" y1="-2.5" x2="82" y2="2.5" />
</g>
<g transform="matrix(1.14 0 0 1 395.62 386.5)"  >
<line style="stroke: rgb(246,143,255); stroke-width: 15; stroke-dasharray: none; stroke-linecap: butt; stroke-dashoffset: 0; stroke-linejoin: miter; stroke-miterlimit: 4; fill: rgb(0,0,0); fill-rule: nonzero; opacity: 1;"  x1="-75.5" y1="-20" x2="75.5" y2="20" />
</g>
<g transform="matrix(1 0 0 1 118 262.5)"  >
<line style="stroke: rgb(149,255,247); stroke-width: 15; stroke-dasharray: none; stroke-linecap: butt; stroke-dashoffset: 0; stroke-linejoin: miter; stroke-miterlimit: 4; fill: rgb(0,0,0); fill-rule: nonzero; opacity: 1;"  x1="99.5" y1="29" x2="-99.5" y2="-29" />
</g>
<g transform="matrix(1 0 0 1 120 326)"  >
<line style="stroke: rgb(151,255,247); stroke-width: 15; stroke-dasharray: none; stroke-linecap: butt; stroke-dashoffset: 0; stroke-linejoin: miter; stroke-miterlimit: 4; fill: rgb(0,0,0); fill-rule: nonzero; opacity: 1;"  x1="89.5" y1="-0.5" x2="-89.5" y2="0.5" />
</g>
<g transform="matrix(1 0 0 1 138 391.5)"  >
<line style="stroke: rgb(174,255,248); stroke-width: 15; stroke-dasharray: none; stroke-linecap: butt; stroke-dashoffset: 0; stroke-linejoin: miter; stroke-miterlimit: 4; fill: rgb(0,0,0); fill-rule: nonzero; opacity: 1;"  x1="79.5" y1="-38" x2="-79.5" y2="38" />
</g>
</svg>